:SAMPLES-PER-SECOND 30
:FULLY-SPECIFIED
:DEGREES
139
root  -30.7042 39.4234 24.2105 -172.445 -72.1414 166.668
RightUpLeg  -17.0492 -7.89472 -5.62293
RightLeg  4.17487 2.09118 0.472248
RightFoot  -2.26521 -0.622302 7.6192
RightToes  -2.21189e-009 0 -3.6325e-017
Spine  10.2157 -1.32376 -4.07502
Spine1  6.88999 -1.47738 -1.0458
HEad  -8.79418 3.26165 -1.96136
LeftShoulder1  -0.322125 4.42641 -28.7456
LeftArm  0.708472 10.2415 -40.5704
LeftForeArm  22.5075 -33.2668 -6.0799
LeftHand  -0.203751 0.474056 4.79186
RightShoulder  -0.598979 -5.27254 27.1329
RightArm  8.96382 -19.6919 45.2536
RightForeArm  7.18073 42.3882 9.75449
RightHand  -0.570744 6.90132 -5.72088
LeftUpLeg  9.19403 7.67091 -1.48743
LeftLeg  11.7913 -0.482174 -0.896491
LeftFoot  -15.322 0.153509 1.76399
LeftToes  -4.03379e-008 1.61488e-010 -5.81581e-011
140
root  -31.7672 39.2847 23.905 -172.315 -72.0791 166.456
RightUpLeg  -16.092 -7.54751 -5.63914
RightLeg  -2.58458 1.72329 0.0573365
RightFoot  -3.00824 -0.49717 6.57161
RightToes  -2.21189e-009 0 -3.6325e-017
Spine  10.2322 -1.32018 -3.15157
Spine1  6.746 -1.36905 -1.1276
HEad  -8.5795 2.6404 -2.43308
LeftShoulder1  -0.252721 4.22474 -28.8636
LeftArm  0.263896 9.7577 -40.8325
LeftForeArm  23.8552 -35.1681 -6.49779
LeftHand  -0.120082 0.955827 3.08692
RightShoulder  -0.570897 -5.19406 27.0085
RightArm  8.31562 -20.2274 44.866
RightForeArm  6.70422 42.9473 9.98438
RightHand  -0.68001 6.8725 -6.77673
LeftUpLeg  11.7103 7.82047 -1.26901
LeftLeg  10.7396 -0.791676 -0.945582
LeftFoot  -16.5586 0.162166 1.39716
LeftToes  -4.03379e-008 1.61488e-010 -5.81581e-011
141
root  -32.886 38.9963 23.5118 -172.74 -72.0947 166.821
RightUpLeg  -16.4788 -7.82934 -5.51666
RightLeg  -2.17774 0.197838 0.575104
RightFoot  -3.57226 -0.520608 7.29626
RightToes  -2.21189e-009 0 -3.6325e-017
Spine  10.0607 -1.41847 -2.25487
Spine1  6.97606 -1.3945 -1.13663
HEad  -8.68579 2.69838 -2.52153
LeftShoulder1  -0.350134 4.48079 -29.6913
LeftArm  -0.215453 8.92079 -40.8224
LeftForeArm  24.5724 -37.1634 -6.99236
LeftHand  -0.114844 1.56318 3.32375
RightShoulder  -0.514275 -5.04979 26.4581
RightArm  8.06812 -19.8502 44.733
RightForeArm  7.30438 43.3238 10.0801
RightHand  -0.642409 6.03414 -6.84047
LeftUpLeg  13.379 8.20879 -0.683617
LeftLeg  11.8677 -1.54108 -0.857296
LeftFoot  -18.9486 0.154637 0.619641
LeftToes  -4.03379e-008 1.61488e-010 -5.81581e-011
142
root  -34.0147 38.8064 23.0709 -175.116 -71.9512 169.042
RightUpLeg  -17.8594 -7.46845 -4.542
RightLeg  3.53502 -2.0959 0.540558
RightFoot  -0.147454 -0.291545 3.26459
RightToes  -2.21189e-009 0 -3.6325e-017
Spine  9.99731 -1.42057 -0.713447
Spine1  7.61018 -1.41288 -0.801961
HEad  -8.2868 1.75637 -2.24246
LeftShoulder1  -0.393968 4.5917 -30.0696
LeftArm  -0.118117 8.44011 -41.3031
LeftForeArm  24.5698 -38.2287 -7.30107
LeftHand  -0.196252 -0.130261 4.1038
RightShoulder  -0.48483 -4.96465 26.3438
RightArm  8.1955 -18.928 43.9919
RightForeArm  8.12265 43.8158 10.2048
RightHand  -0.612667 6.03978 -6.53945
LeftUpLeg  15.3471 8.40083 0.451721
LeftLeg  12.7825 -2.01651 -0.56049
LeftFoot  -20.3549 0.0631122 -0.753619
LeftToes  -4.03379e-008 1.61488e-010 -5.81581e-011
143
root  -35.1692 38.662 22.5843 -177.846 -71.9738 171.955
RightUpLeg  -19.5811 -7.91097 -3.28435
RightLeg  9.11713 -2.18499 0.518993
RightFoot  5.33434 0.0779775 -0.433113
RightToes  -2.21189e-009 0 -3.6325e-017
Spine  9.66444 -1.55268 1.19331
Spine1  8.29511 -1.52862 -0.335151
HEad  -8.97721 2.67124 -4.04954
LeftShoulder1  -0.367169 4.51575 -30.1445
LeftArm  -0.772376 8.99545 -42.2098
LeftForeArm  23.6812 -39.9688 -7.8684
LeftHand  -0.324635 -0.713157 6.32573
RightShoulder  -0.482299 -4.96424 26.1794
RightArm  7.84203 -17.864 43.3266
RightForeArm  9.13377 44.5885 10.4239
RightHand  -0.622659 6.26507 -6.52277
LeftUpLeg  16.507 7.38675 1.41658
LeftLeg  14.5439 -1.8127 -0.169396
LeftFoot  -21.2103 -0.119591 -2.8376
LeftToes  -4.03379e-008 1.61488e-010 -5.81581e-011
144
root  -36.3899 38.4611 22.0233 177.183 -71.9572 176.306
RightUpLeg  -19.8761 -8.54194 -1.60376
RightLeg  14.7374 -0.126105 0.224638
RightFoot  6.80823 0.0448996 -0.00468311
RightToes  -2.21189e-009 0 -3.6325e-017
Spine  10.0906 -1.86732 3.79469
Spine1  8.55298 -1.46922 -0.662834
HEad  -9.14383 3.30369 -4.31542
LeftShoulder1  -0.362171 4.4843 -30.7981
LeftArm  -0.155854 8.72906 -42.2404
LeftForeArm  23.8855 -40.7882 -8.11008
LeftHand  -0.325934 -0.901546 6.14246
RightShoulder  -0.53667 -5.11851 26.443
RightArm  7.32221 -16.4884 42.2575
RightForeArm  9.4827 45.4622 10.7359
RightHand  -0.646085 6.55252 -6.60656
LeftUpLeg  17.2928 5.50505 2.93138
LeftLeg  19.2831 -1.30975 -0.159381
LeftFoot  -21.7597 -0.422972 -6.03808
LeftToes  -4.03379e-008 1.61488e-010 -5.81581e-011
145
root  -37.5774 38.2939 21.4709 171.602 -71.4386 -178.398
RightUpLeg  -20.3592 -8.57937 0.523216
RightLeg  20.6519 0.667855 0.0271133
RightFoot  4.61756 0.345768 -2.24436
RightToes  -2.21189e-009 0 -3.6325e-017
Spine  10.5238 -2.33566 7.14649
Spine1  8.70804 -1.27481 -1.31726
HEad  -8.62721 3.78913 -4.54712
LeftShoulder1  -0.347149 4.44712 -30.6588
LeftArm  -0.0182776 9.31112 -42.7666
LeftForeArm  24.0719 -41.5666 -8.34507
LeftHand  -0.308851 -0.650985 6.0289
RightShoulder  -0.541809 -5.1112 26.9112
RightArm  6.27534 -15.1416 41.6419
RightForeArm  10.5188 46.384 11.0269
RightHand  -0.577497 5.41912 -6.50452
LeftUpLeg  16.1569 4.35936 5.06592
LeftLeg  26.8374 -1.76505 -0.679455
LeftFoot  -20.4763 -0.746518 -11.062
LeftToes  -4.03379e-008 1.61488e-010 -5.81581e-011
146
root  -38.6534 38.1728 20.8878 167.956 -71.4635 -174.355
RightUpLeg  -20.5939 -8.57878 2.03555
RightLeg  24.6302 0.131814 -0.159603
RightFoot  1.66293 0.414528 -3.53654
RightToes  -2.21189e-009 0 -3.6325e-017
Spine  10.8049 -2.71574 8.82182
Spine1  8.15282 -1.4968 -0.1481
HEad  -7.57176 4.69959 -4.99248
LeftShoulder1  -0.255268 4.2034 -30.3493
LeftArm  -0.671161 10.1704 -43.627
LeftForeArm  25.1254 -42.1927 -8.47653
LeftHand  -0.226699 -0.630445 4.48106
RightShoulder  -0.462781 -4.88694 26.5914
RightArm  5.42004 -13.9683 41.528
RightForeArm  10.1889 47.3899 11.4712
RightHand  -0.650568 5.59468 -7.17297
LeftUpLeg  11.8068 3.24536 6.95509
LeftLeg  37.1876 -2.21819 -1.37648
LeftFoot  -14.7759 -0.353975 -15.8011
LeftToes  -4.03379e-008 1.61488e-010 -5.81581e-011
147
root  -39.6467 38.1334 20.3386 163.935 -72.1162 -169.706
RightUpLeg  -20.2099 -10.1602 3.54482
RightLeg  26.9846 0.395701 -0.0269384
RightFoot  -1.16467 0.375038 -4.26319
RightToes  -2.21189e-009 0 -3.6325e-017
Spine  10.5662 -3.13594 10.8492
Spine1  8.29813 -1.68838 0.38895
HEad  -8.01723 5.27258 -4.68512
LeftShoulder1  -0.244058 4.17408 -30.2138
LeftArm  0.254045 8.73718 -44.0942
LeftForeArm  25.8648 -42.5791 -8.558
LeftHand  -0.176655 -0.990335 3.32916
RightShoulder  -0.494724 -4.99188 26.3935
RightArm  3.56411 -12.2684 41.7299
RightForeArm  10.599 49.4813 12.3703
RightHand  -0.732912 5.80173 -7.90928
LeftUpLeg  4.69496 1.01276 8.00789
LeftLeg  49.0559 -0.38738 0.0216496
LeftFoot  -1.76358 0.943442 -13.5923
LeftToes  -4.03379e-008 1.61488e-010 -5.81581e-011
148
root  -40.6206 38.1304 19.8206 158.974 -72.2008 -165.188
RightUpLeg  -18.2594 -10.381 4.80054
RightLeg  28.4825 -0.0519256 -0.279193
RightFoot  -3.84727 0.240141 -4.07134
RightToes  -2.21189e-009 0 -3.6325e-017
Spine  11.1519 -3.33537 12.6802
Spine1  8.72918 -1.61405 0.805302
HEad  -8.31276 4.57684 -4.57384
LeftShoulder1  -0.287058 4.27341 -31.107
LeftArm  0.640049 6.96111 -43.9089
LeftForeArm  26.1004 -44.3378 -9.13806
LeftHand  -0.220151 -1.15055 4.03986
RightShoulder  -0.434645 -4.82242 26.036
RightArm  2.1408 -9.93375 41.704
RightForeArm  11.8649 51.8256 13.4085
RightHand  -0.706678 5.44398 -7.86801
LeftUpLeg  -1.61675 -0.48212 8.82165
LeftLeg  59.1119 0.624274 1.55833
LeftFoot  10.4317 0.903234 -4.4449
LeftToes  -4.03379e-008 1.61488e-010 -5.81581e-011
149
root  -41.6119 38.2635 19.2934 157.936 -71.9194 -165.23
RightUpLeg  -15.3497 -10.3251 4.74072
RightLeg  29.0672 -0.105511 -0.316637
RightFoot  -6.05365 0.154241 -4.22306
RightToes  -2.21189e-009 0 -3.6325e-017
Spine  11.8173 -3.18761 13.5629
Spine1  9.48746 -0.926126 -0.113077
HEad  -8.71924 3.54934 -3.5313
LeftShoulder1  -0.160519 3.94567 -30.2954
LeftArm  -0.0364126 5.18258 -44.8642
LeftForeArm  26.7979 -45.7551 -9.59779
LeftHand  -0.243918 -1.63817 4.19566
RightShoulder  -0.519375 -5.06564 26.4488
RightArm  1.45019 -5.9798 41.5604
RightForeArm  12.2625 53.1197 14.0661
RightHand  -0.725681 5.39403 -8.10757
LeftUpLeg  -5.78803 -1.09635 8.49705
LeftLeg  64.9577 -0.431328 -0.351475
LeftFoot  6.43449 0.506415 -3.53801
LeftToes  -4.03379e-008 1.61488e-010 -5.81581e-011
150
root  -42.595 38.4406 18.7465 158.733 -71.6333 -166.086
RightUpLeg  -13.2616 -10.2694 4.64705
RightLeg  28.9361 0.0960609 -0.196416
RightFoot  -7.85977 0.0748624 -4.18645
RightToes  -2.21189e-009 0 -3.6325e-017
Spine  11.5466 -2.83799 13.6299
Spine1  9.48879 -0.539465 -0.319649
HEad  -8.34833 3.75588 -3.35718
LeftShoulder1  -0.118402 3.82608 -30.6163
LeftArm  -0.473323 3.03766 -44.5108
LeftForeArm  26.363 -46.9567 -10.091
LeftHand  -0.245138 -1.23309 4.42654
RightShoulder  -0.439415 -4.84745 25.8062
RightArm  0.4193 -1.74865 42.5681
RightForeArm  11.8407 53.2003 14.1509
RightHand  -0.733568 5.10903 -8.39547
LeftUpLeg  -10.6571 -1.40683 7.80724
LeftLeg  67.1199 -1.39624 -2.89164
LeftFoot  3.90653 0.551553 -4.26656
LeftToes  -4.03379e-008 1.61488e-010 -5.81581e-011
151
root  -43.5761 38.6112 18.2146 159.123 -71.4861 -166.293
RightUpLeg  -11.2042 -10.201 4.69789
RightLeg  28.3715 0.104322 -0.191449
RightFoot  -9.49048 -0.000290115 -3.9827
RightToes  -2.21189e-009 0 -3.6325e-017
Spine  11.4108 -2.78962 13.9424
Spine1  8.72001 -0.370978 -1.16516
HEad  -7.21229 3.81902 -3.1251
LeftShoulder1  -0.0794344 3.72652 -29.4631
LeftArm  -1.76615 1.91249 -44.7766
LeftForeArm  25.6318 -48.624 -10.8125
LeftHand  -0.29701 -1.31479 5.29059
RightShoulder  -0.350259 -4.58927 25.2168
RightArm  -0.270459 2.78854 44.1182
RightForeArm  12.1765 52.9694 13.9967
RightHand  -0.725499 5.28556 -8.18035
LeftUpLeg  -15.1645 -1.46481 7.18815
LeftLeg  66.1952 -1.76223 -3.70094
LeftFoot  1.24365 0.394493 -3.67956
LeftToes  -4.03379e-008 1.61488e-010 -5.81581e-011
